{"title":"Plemya - The Tribe 2014 [720p] BluRay Rip - LucasCulas","uid":12857186,"size":1921644631,"categoryP":"video","categoryS":"hd___movies","magnet":"?xt=urn:btih:ac0880c74d9bf6144d21b1cd51078d4cf493f279&amp;dn=Plemya+-+The+Tribe+2014+%5B720p%5D+BluRay+Rip+-+LucasCulas&amp;tr=udp%3A%2F%2Ftracker.leechers-paradise.org%3A6969&amp;tr=udp%3A%2F%2Fzer0day.ch%3A1337&amp;tr=udp%3A%2F%2Fopen.demonii.com%3A1337&amp;tr=udp%3A%2F%2Ftracker.coppersurfer.tk%3A6969&amp;tr=udp%3A%2F%2Fexodus.desync.com%3A6969","seeders":1,"leechers":1,"uploader":"LucasCulas","files":1,"time":1448682470,"description":"THIS FILM IS IN SIGN LANGUAGE. THERE ARE NO TRANSLATION, NO SUBTITLES, NO VOICE-OVER.\r\n\r\nA deaf teenager enters a specialized boarding school where, to survive, he becomes part of a wild organization - the tribe. His love for one of the concubines will unwillingly lead him to break all the unwritten rules within the Tribe's hierarchy.\r\n\r\nGeneral\r\nFormat: MPEG-4\r\nFile size: 1.79 GiB\r\nDuration: 2h 6mn\r\nOverall bit rate mode: Variable\r\nOverall bit rate: 2 026 Kbps\r\n\r\nVideo\r\nID: 1\r\nFormat: AVC\r\nFormat profile:   \r\nFormat settings, CABAC: Yes\r\nBit rate: 1 840 Kbps\r\nWidth: 1 280 pixels\r\nHeight: 534 pixels\r\nDisplay aspect ratio: 2.40:1\r\nBit depth: 8 bits\r\nStream size: 1.61 GiB (90%)\r\nWriting library: x264 core 142 r2479 dd79a61\r\n\r\nAudio\r\nFormat: AAC\r\nBit rate mode: Variable\r\nBit rate: 192 Kbps\r\nChannel(s): 2 channels\r\nChannel positions: Front: L R\r\nSampling rate: 48.0 KHz\r\nCompression mode: Lossy\r\nStream size: 174 MiB (9%)","torrent":{"xt":"urn:btih:ac0880c74d9bf6144d21b1cd51078d4cf493f279","amp;dn":"Plemya+-+The+Tribe+2014+%5B720p%5D+BluRay+Rip+-+LucasCulas","amp;tr":["udp%3A%2F%2Ftracker.leechers-paradise.org%3A6969","udp%3A%2F%2Fzer0day.ch%3A1337","udp%3A%2F%2Fopen.demonii.com%3A1337","udp%3A%2F%2Ftracker.coppersurfer.tk%3A6969","udp%3A%2F%2Fexodus.desync.com%3A6969"],"infoHash":"ac0880c74d9bf6144d21b1cd51078d4cf493f279","infoHashBuffer":{"type":"Buffer","data":[172,8,128,199,77,155,246,20,77,33,177,205,81,7,141,76,244,147,242,121]},"announce":[],"urlList":[]}}